<svg width="20" height="20" viewBox="0 0 20 20" fill="none" xmlns="http://www.w3.org/2000/svg">
<g clip-path="url(#clip0_2079_53)">
<path d="M10 12.5C11.3807 12.5 12.5 11.3807 12.5 9.99999C12.5 8.61928 11.3807 7.49999 10 7.49999C8.61929 7.49999 7.5 8.61928 7.5 9.99999C7.5 11.3807 8.61929 12.5 10 12.5Z" stroke="white" stroke-width="1.5" stroke-linecap="round" stroke-linejoin="round"/>
<path d="M15.6061 12.2727C15.5052 12.5012 15.4751 12.7547 15.5197 13.0004C15.5643 13.2462 15.6814 13.473 15.8561 13.6515L15.9015 13.697C16.0424 13.8377 16.1541 14.0048 16.2304 14.1887C16.3066 14.3727 16.3459 14.5698 16.3459 14.7689C16.3459 14.968 16.3066 15.1652 16.2304 15.3491C16.1541 15.5331 16.0424 15.7002 15.9015 15.8409C15.7608 15.9818 15.5937 16.0935 15.4098 16.1698C15.2258 16.246 15.0287 16.2853 14.8295 16.2853C14.6304 16.2853 14.4333 16.246 14.2493 16.1698C14.0654 16.0935 13.8983 15.9818 13.7576 15.8409L13.7121 15.7954C13.5336 15.6208 13.3068 15.5036 13.0611 15.4591C12.8153 15.4145 12.5618 15.4446 12.3333 15.5454C12.1093 15.6415 11.9182 15.8009 11.7836 16.0042C11.649 16.2074 11.5767 16.4456 11.5758 16.6894V16.8182C11.5758 17.22 11.4161 17.6054 11.132 17.8895C10.8478 18.1737 10.4625 18.3333 10.0606 18.3333C9.65876 18.3333 9.27338 18.1737 8.98923 17.8895C8.70509 17.6054 8.54546 17.22 8.54546 16.8182V16.75C8.53959 16.4992 8.45842 16.256 8.31251 16.052C8.16659 15.848 7.96268 15.6926 7.72727 15.6061C7.49878 15.5052 7.24531 15.4751 6.99956 15.5197C6.7538 15.5642 6.52703 15.6814 6.34849 15.8561L6.30303 15.9015C6.16231 16.0424 5.99521 16.1541 5.81127 16.2304C5.62734 16.3066 5.43018 16.3459 5.23106 16.3459C5.03195 16.3459 4.83479 16.3066 4.65085 16.2304C4.46691 16.1541 4.29981 16.0424 4.15909 15.9015C4.01822 15.7608 3.90646 15.5937 3.83021 15.4097C3.75396 15.2258 3.71472 15.0287 3.71472 14.8295C3.71472 14.6304 3.75396 14.4333 3.83021 14.2493C3.90646 14.0654 4.01822 13.8983 4.15909 13.7576L4.20455 13.7121C4.3792 13.5336 4.49635 13.3068 4.54091 13.061C4.58547 12.8153 4.55539 12.5618 4.45455 12.3333C4.35851 12.1093 4.19906 11.9182 3.99581 11.7836C3.79256 11.649 3.55439 11.5767 3.31061 11.5757H3.18182C2.77998 11.5757 2.39459 11.4161 2.11045 11.132C1.8263 10.8478 1.66667 10.4624 1.66667 10.0606C1.66667 9.65875 1.8263 9.27337 2.11045 8.98922C2.39459 8.70508 2.77998 8.54544 3.18182 8.54544H3.25C3.50075 8.53958 3.74394 8.45841 3.94796 8.3125C4.15197 8.16658 4.30736 7.96267 4.39394 7.72726C4.49479 7.49877 4.52487 7.2453 4.48031 6.99954C4.43575 6.75379 4.31859 6.52702 4.14394 6.34847L4.09849 6.30302C3.95761 6.1623 3.84586 5.9952 3.76961 5.81126C3.69336 5.62733 3.65411 5.43016 3.65411 5.23105C3.65411 5.03194 3.69336 4.83477 3.76961 4.65084C3.84586 4.4669 3.95761 4.2998 4.09849 4.15908C4.2392 4.01821 4.40631 3.90645 4.59024 3.8302C4.77418 3.75395 4.97134 3.71471 5.17046 3.71471C5.36957 3.71471 5.56673 3.75395 5.75067 3.8302C5.93461 3.90645 6.10171 4.01821 6.24243 4.15908L6.28788 4.20454C6.46643 4.37918 6.6932 4.49634 6.93895 4.5409C7.1847 4.58546 7.43817 4.55538 7.66667 4.45454H7.72727C7.95134 4.3585 8.14244 4.19905 8.27704 3.9958C8.41164 3.79255 8.48388 3.55437 8.48485 3.3106V3.18181C8.48485 2.77996 8.64448 2.39458 8.92863 2.11043C9.21277 1.82629 9.59816 1.66666 10 1.66666C10.4018 1.66666 10.7872 1.82629 11.0714 2.11043C11.3555 2.39458 11.5152 2.77996 11.5152 3.18181V3.24999C11.5161 3.49377 11.5884 3.73194 11.723 3.93519C11.8576 4.13844 12.0487 4.2979 12.2727 4.39393C12.5012 4.49477 12.7547 4.52486 13.0004 4.4803C13.2462 4.43574 13.473 4.31858 13.6515 4.14393L13.697 4.09847C13.8377 3.9576 14.0048 3.84585 14.1887 3.7696C14.3727 3.69335 14.5698 3.6541 14.7689 3.6541C14.9681 3.6541 15.1652 3.69335 15.3492 3.7696C15.5331 3.84585 15.7002 3.9576 15.8409 4.09847C15.9818 4.23919 16.0935 4.4063 16.1698 4.59023C16.246 4.77417 16.2853 4.97133 16.2853 5.17044C16.2853 5.36956 16.246 5.56672 16.1698 5.75066C16.0935 5.93459 15.9818 6.1017 15.8409 6.24241L15.7955 6.28787C15.6208 6.46641 15.5036 6.69318 15.4591 6.93894C15.4145 7.18469 15.4446 7.43816 15.5455 7.66666V7.72726C15.6415 7.95133 15.8009 8.14243 16.0042 8.27703C16.2074 8.41163 16.4456 8.48387 16.6894 8.48484H16.8182C17.22 8.48484 17.6054 8.64447 17.8896 8.92862C18.1737 9.21276 18.3333 9.59815 18.3333 9.99999C18.3333 10.4018 18.1737 10.7872 17.8896 11.0714C17.6054 11.3555 17.22 11.5151 16.8182 11.5151H16.75C16.5062 11.5161 16.2681 11.5883 16.0648 11.723C15.8616 11.8576 15.7021 12.0487 15.6061 12.2727Z" stroke="white" stroke-width="1.5" stroke-linecap="round" stroke-linejoin="round"/>
</g>
<defs>
<clipPath id="clip0_2079_53">
<rect width="20" height="20" fill="white"/>
</clipPath>
</defs>
</svg>
