<svg width="95" height="16" viewBox="0 0 95 16" fill="none" xmlns="http://www.w3.org/2000/svg">
<path d="M4.33267 0H6.48754V16H4.33267V4.2188H0V2.1094H4.33267V0ZM12.974 0H15.1289V16H12.974V4.2188H8.64133V2.1094H12.974V0ZM32.4006 0V2.1094H23.7582V7.98878H32.4006V10.0982H23.7582V16H21.6034V0H32.4006ZM32.4006 2.1094H34.5555V7.98878H32.4006V2.1094ZM41.0243 2.1094V0H45.334V2.1094H41.0243ZM41.0243 4.2188H38.8694V2.1094H41.0243V4.2188ZM49.6437 4.2188V16H47.4889V11.1753H38.8694V16H36.7145V4.2188H38.8694V9.06592H47.4889V4.2188H49.6437ZM45.334 4.2188V2.1094H47.4889V4.2188H45.334ZM62.6006 13.8906V16H53.9581V13.8906H62.6006ZM51.8033 0H53.9581V13.8906H51.8033V0ZM71.2528 13.8906V11.7812H73.4077V13.8906H71.2528ZM71.2528 6.32819V11.7812H69.098V6.32819H71.2528ZM69.098 4.2188V6.32819H66.9202V16H64.7653V0H66.9202V4.2188H69.098ZM75.5626 6.32819V11.7812H73.4077V6.32819H75.5626ZM77.7404 4.2188V0H79.8952V16H77.7404V6.32819H75.5626V4.2188H77.7404ZM75.5626 6.32819V4.2188H77.7404V6.32819H75.5626ZM82.0479 13.8906V11.7812H84.2027V13.8906H82.0479ZM92.8451 13.8906V9.06592H95V13.8906H92.8451ZM92.8451 4.2188V2.1094H95V4.2188H92.8451ZM82.0479 6.95652V2.1094H84.2027V6.95652H82.0479ZM84.2027 9.06592V6.95652H92.8451V9.06592H84.2027ZM84.2027 2.1094V0H92.8451V2.1094H84.2027ZM84.2027 16V13.8906H92.8451V16H84.2027Z" fill="white"/>
</svg>
