<svg width="45" height="45" viewBox="0 0 45 45" fill="none" xmlns="http://www.w3.org/2000/svg">
<path d="M18.8214 13.8239H24.3892C27.0065 13.8239 28.244 15.2079 28.244 18.2727C28.244 21.3869 27.1018 22.7216 24.3892 22.7216H18.8214V13.8239Z" fill="#F7F7F7"/>
<path fill-rule="evenodd" clip-rule="evenodd" d="M1.15405 5.78128C0 8.04622 0 11.0112 0 16.9412V28.0588C0 33.9888 0 36.9538 1.15405 39.2187C2.16918 41.211 3.78897 42.8308 5.78128 43.846C8.04622 45 11.0112 45 16.9412 45H28.0588C33.9888 45 36.9538 45 39.2187 43.846C41.211 42.8308 42.8308 41.211 43.846 39.2187C45 36.9538 45 33.9888 45 28.0588V16.9412C45 11.0112 45 8.04622 43.846 5.78128C42.8308 3.78897 41.211 2.16918 39.2187 1.15405C36.9538 0 33.9888 0 28.0588 0H16.9412C11.0112 0 8.04622 0 5.78128 1.15405C3.78897 2.16918 2.16918 3.78897 1.15405 5.78128ZM14.0625 9.81987V36.1176C14.0625 36.3646 14.2052 36.5625 14.4908 36.5625H18.3931C18.6787 36.5625 18.8214 36.3646 18.8214 36.1176V27.2199H25.0555C30.1 27.2199 32.8125 24.0067 32.8125 18.2727C32.8125 12.4892 30.1 9.375 25.0555 9.375H14.4908C14.2052 9.375 14.0625 9.47393 14.0625 9.81987Z" fill="#F7F7F7"/>
</svg>
